<svg xmlns="http://www.w3.org/2000/svg" xmlns:xlink="http://www.w3.org/1999/xlink" contentStyleType="text/css" data-diagram-type="ACTIVITY" height="2876px" preserveAspectRatio="none" style="width:483px;height:2876px;background:#FFFFFF;" version="1.1" viewBox="0 0 483 2876" width="483px" zoomAndPan="magnify"><defs/><g><ellipse cx="245.0337" cy="20" fill="#222222" rx="10" ry="10" style="stroke:#222222;stroke-width:1;"/><rect fill="#F1F1F1" height="33.9688" rx="12.5" ry="12.5" style="stroke:#181818;stroke-width:0.5;" width="154.8008" x="167.6333" y="50"/><text fill="#000000" font-family="sans-serif" font-size="12" lengthAdjust="spacing" textLength="134.8008" x="177.6333" y="71.1387">User visits Home Page</text><polygon fill="#F1F1F1" points="205.5535,152.3711,284.5139,152.3711,296.5139,164.3711,284.5139,176.3711,205.5535,176.3711,193.5535,164.3711,205.5535,152.3711" style="stroke:#181818;stroke-width:0.5;"/><text fill="#000000" font-family="sans-serif" font-size="11" lengthAdjust="spacing" textLength="78.9604" x="205.5535" y="168.1792">Cookies Exist?</text><text fill="#000000" font-family="sans-serif" font-size="11" lengthAdjust="spacing" textLength="19.2178" x="174.3357" y="161.7769">Yes</text><text fill="#000000" font-family="sans-serif" font-size="11" lengthAdjust="spacing" textLength="14.9585" x="296.5139" y="161.7769">No</text><rect fill="#F1F1F1" height="33.9688" rx="12.5" ry="12.5" style="stroke:#181818;stroke-width:0.5;" width="173.9727" x="65.5654" y="186.3711"/><text fill="#000000" font-family="sans-serif" font-size="12" lengthAdjust="spacing" textLength="153.9727" x="75.5654" y="207.5098">Redirect to Services Page</text><rect fill="#F1F1F1" height="33.9688" rx="12.5" ry="12.5" style="stroke:#181818;stroke-width:0.5;" width="155.9551" x="259.5381" y="186.3711"/><text fill="#000000" font-family="sans-serif" font-size="12" lengthAdjust="spacing" textLength="135.9551" x="269.5381" y="207.5098">Redirect to Login Page</text><polygon fill="#F1F1F1" points="245.0337,226.3398,257.0337,238.3398,245.0337,250.3398,233.0337,238.3398,245.0337,226.3398" style="stroke:#181818;stroke-width:0.5;"/><polygon fill="#F1F1F1" points="190.3936,103.9688,299.6738,103.9688,311.6738,115.9688,299.6738,127.9688,190.3936,127.9688,178.3936,115.9688,190.3936,103.9688" style="stroke:#181818;stroke-width:0.5;"/><text fill="#000000" font-family="sans-serif" font-size="11" lengthAdjust="spacing" textLength="19.2178" x="249.0337" y="138.1792">Yes</text><text fill="#000000" font-family="sans-serif" font-size="11" lengthAdjust="spacing" textLength="109.2803" x="190.3936" y="119.7769">Clicks "Get Started"</text><polygon fill="#F1F1F1" points="245.0337,270.3398,257.0337,282.3398,245.0337,294.3398,233.0337,282.3398,245.0337,270.3398" style="stroke:#181818;stroke-width:0.5;"/><rect fill="#F1F1F1" height="33.9688" rx="12.5" ry="12.5" style="stroke:#181818;stroke-width:0.5;" width="167.6738" x="161.1968" y="362.7422"/><text fill="#000000" font-family="sans-serif" font-size="12" lengthAdjust="spacing" textLength="147.6738" x="171.1968" y="383.8809">Redirect to Google Maps</text><polygon fill="#F1F1F1" points="191.6987,314.3398,298.3687,314.3398,310.3687,326.3398,298.3687,338.3398,191.6987,338.3398,179.6987,326.3398,191.6987,314.3398" style="stroke:#181818;stroke-width:0.5;"/><text fill="#000000" font-family="sans-serif" font-size="11" lengthAdjust="spacing" textLength="19.2178" x="249.0337" y="348.5503">Yes</text><text fill="#000000" font-family="sans-serif" font-size="11" lengthAdjust="spacing" textLength="106.6699" x="191.6987" y="330.1479">Clicks Google Maps</text><polygon fill="#F1F1F1" points="245.0337,416.7109,257.0337,428.7109,245.0337,440.7109,233.0337,428.7109,245.0337,416.7109" style="stroke:#181818;stroke-width:0.5;"/><polygon fill="#F1F1F1" points="205.5535,557.5156,284.5139,557.5156,296.5139,569.5156,284.5139,581.5156,205.5535,581.5156,193.5535,569.5156,205.5535,557.5156" style="stroke:#181818;stroke-width:0.5;"/><text fill="#000000" font-family="sans-serif" font-size="11" lengthAdjust="spacing" textLength="78.9604" x="205.5535" y="573.3237">Cookies Exist?</text><text fill="#000000" font-family="sans-serif" font-size="11" lengthAdjust="spacing" textLength="19.2178" x="174.3357" y="566.9214">Yes</text><text fill="#000000" font-family="sans-serif" font-size="11" lengthAdjust="spacing" textLength="14.9585" x="296.5139" y="566.9214">No</text><rect fill="#F1F1F1" height="33.9688" rx="12.5" ry="12.5" style="stroke:#181818;stroke-width:0.5;" width="173.9727" x="65.5654" y="591.5156"/><text fill="#000000" font-family="sans-serif" font-size="12" lengthAdjust="spacing" textLength="153.9727" x="75.5654" y="612.6543">Redirect to Services Page</text><rect fill="#F1F1F1" height="33.9688" rx="12.5" ry="12.5" style="stroke:#181818;stroke-width:0.5;" width="155.9551" x="259.5381" y="591.5156"/><text fill="#000000" font-family="sans-serif" font-size="12" lengthAdjust="spacing" textLength="135.9551" x="269.5381" y="612.6543">Redirect to Login Page</text><polygon fill="#F1F1F1" points="245.0337,631.4844,257.0337,643.4844,245.0337,655.4844,233.0337,643.4844,245.0337,631.4844" style="stroke:#181818;stroke-width:0.5;"/><polygon fill="#F1F1F1" points="190.3936,509.1133,299.6738,509.1133,311.6738,521.1133,299.6738,533.1133,190.3936,533.1133,178.3936,521.1133,190.3936,509.1133" style="stroke:#181818;stroke-width:0.5;"/><text fill="#000000" font-family="sans-serif" font-size="11" lengthAdjust="spacing" textLength="19.2178" x="249.0337" y="543.3237">Yes</text><text fill="#000000" font-family="sans-serif" font-size="11" lengthAdjust="spacing" textLength="109.2803" x="190.3936" y="524.9214">Clicks "Get Started"</text><polygon fill="#F1F1F1" points="245.0337,675.4844,257.0337,687.4844,245.0337,699.4844,233.0337,687.4844,245.0337,675.4844" style="stroke:#181818;stroke-width:0.5;"/><polygon fill="#F1F1F1" points="197.0081,460.7109,293.0593,460.7109,305.0593,472.7109,293.0593,484.7109,197.0081,484.7109,185.0081,472.7109,197.0081,460.7109" style="stroke:#181818;stroke-width:0.5;"/><text fill="#000000" font-family="sans-serif" font-size="11" lengthAdjust="spacing" textLength="19.2178" x="249.0337" y="494.9214">Yes</text><text fill="#000000" font-family="sans-serif" font-size="11" lengthAdjust="spacing" textLength="96.0513" x="197.0081" y="476.519">Visits About Page</text><polygon fill="#F1F1F1" points="245.0337,719.4844,257.0337,731.4844,245.0337,743.4844,233.0337,731.4844,245.0337,719.4844" style="stroke:#181818;stroke-width:0.5;"/><polygon fill="#F1F1F1" points="205.5535,811.8867,284.5139,811.8867,296.5139,823.8867,284.5139,835.8867,205.5535,835.8867,193.5535,823.8867,205.5535,811.8867" style="stroke:#181818;stroke-width:0.5;"/><text fill="#000000" font-family="sans-serif" font-size="11" lengthAdjust="spacing" textLength="78.9604" x="205.5535" y="827.6948">Cookies Exist?</text><text fill="#000000" font-family="sans-serif" font-size="11" lengthAdjust="spacing" textLength="19.2178" x="174.3357" y="821.2925">Yes</text><text fill="#000000" font-family="sans-serif" font-size="11" lengthAdjust="spacing" textLength="14.9585" x="296.5139" y="821.2925">No</text><rect fill="#F1F1F1" height="33.9688" rx="12.5" ry="12.5" style="stroke:#181818;stroke-width:0.5;" width="129.1191" x="82.4399" y="845.8867"/><text fill="#000000" font-family="sans-serif" font-size="12" lengthAdjust="spacing" textLength="109.1191" x="92.4399" y="867.0254">Validate All Inputs</text><rect fill="#F1F1F1" height="33.9688" rx="12.5" ry="12.5" style="stroke:#181818;stroke-width:0.5;" width="152.1816" x="70.9087" y="948.2578"/><text fill="#000000" font-family="sans-serif" font-size="12" lengthAdjust="spacing" textLength="132.1816" x="80.9087" y="969.3965">Proceed with Services</text><polygon fill="#F1F1F1" points="102.978,899.8555,191.021,899.8555,203.021,911.8555,191.021,923.8555,102.978,923.8555,90.978,911.8555,102.978,899.8555" style="stroke:#181818;stroke-width:0.5;"/><text fill="#000000" font-family="sans-serif" font-size="11" lengthAdjust="spacing" textLength="19.2178" x="150.9995" y="934.0659">Yes</text><text fill="#000000" font-family="sans-serif" font-size="11" lengthAdjust="spacing" textLength="88.043" x="102.978" y="915.6636">All Inputs Valid?</text><polygon fill="#F1F1F1" points="146.9995,1002.2266,158.9995,1014.2266,146.9995,1026.2266,134.9995,1014.2266,146.9995,1002.2266" style="stroke:#181818;stroke-width:0.5;"/><rect fill="#F1F1F1" height="33.9688" rx="12.5" ry="12.5" style="stroke:#181818;stroke-width:0.5;" width="155.9551" x="265.0903" y="845.8867"/><text fill="#000000" font-family="sans-serif" font-size="12" lengthAdjust="spacing" textLength="135.9551" x="275.0903" y="867.0254">Redirect to Login Page</text><polygon fill="#F1F1F1" points="245.0337,1032.2266,257.0337,1044.2266,245.0337,1056.2266,233.0337,1044.2266,245.0337,1032.2266" style="stroke:#181818;stroke-width:0.5;"/><polygon fill="#F1F1F1" points="190.0767,763.4844,299.9907,763.4844,311.9907,775.4844,299.9907,787.4844,190.0767,787.4844,178.0767,775.4844,190.0767,763.4844" style="stroke:#181818;stroke-width:0.5;"/><text fill="#000000" font-family="sans-serif" font-size="11" lengthAdjust="spacing" textLength="19.2178" x="249.0337" y="797.6948">Yes</text><text fill="#000000" font-family="sans-serif" font-size="11" lengthAdjust="spacing" textLength="109.9141" x="190.0767" y="779.2925">Visits Services Page</text><polygon fill="#F1F1F1" points="245.0337,1076.2266,257.0337,1088.2266,245.0337,1100.2266,233.0337,1088.2266,245.0337,1076.2266" style="stroke:#181818;stroke-width:0.5;"/><rect fill="#F1F1F1" height="33.9688" rx="12.5" ry="12.5" style="stroke:#181818;stroke-width:0.5;" width="120.957" x="184.5552" y="1168.6289"/><text fill="#000000" font-family="sans-serif" font-size="12" lengthAdjust="spacing" textLength="100.957" x="194.5552" y="1189.7676">User Inputs Data</text><rect fill="#F1F1F1" height="33.9688" rx="12.5" ry="12.5" style="stroke:#181818;stroke-width:0.5;" width="110.4277" x="189.8198" y="1222.5977"/><text fill="#000000" font-family="sans-serif" font-size="12" lengthAdjust="spacing" textLength="90.4277" x="199.8198" y="1243.7363">Validate Inputs</text><rect fill="#F1F1F1" height="33.9688" rx="12.5" ry="12.5" style="stroke:#181818;stroke-width:0.5;" width="183.5645" x="153.2515" y="1276.5664"/><text fill="#000000" font-family="sans-serif" font-size="12" lengthAdjust="spacing" textLength="163.5645" x="163.2515" y="1297.7051">Send Message to Database</text><polygon fill="#F1F1F1" points="183.2312,1120.2266,306.8362,1120.2266,318.8362,1132.2266,306.8362,1144.2266,183.2312,1144.2266,171.2312,1132.2266,183.2312,1120.2266" style="stroke:#181818;stroke-width:0.5;"/><text fill="#000000" font-family="sans-serif" font-size="11" lengthAdjust="spacing" textLength="19.2178" x="249.0337" y="1154.437">Yes</text><text fill="#000000" font-family="sans-serif" font-size="11" lengthAdjust="spacing" textLength="123.605" x="183.2312" y="1136.0347">Visits Contact Us Page</text><polygon fill="#F1F1F1" points="245.0337,1330.5352,257.0337,1342.5352,245.0337,1354.5352,233.0337,1342.5352,245.0337,1330.5352" style="stroke:#181818;stroke-width:0.5;"/><rect fill="#F1F1F1" height="33.9688" rx="12.5" ry="12.5" style="stroke:#181818;stroke-width:0.5;" width="164.6973" x="162.6851" y="1471.3398"/><text fill="#000000" font-family="sans-serif" font-size="12" lengthAdjust="spacing" textLength="144.6973" x="172.6851" y="1492.4785">Display User Data Table</text><rect fill="#F1F1F1" height="33.9688" rx="12.5" ry="12.5" style="stroke:#181818;stroke-width:0.5;" width="262.9531" x="113.5571" y="1525.3086"/><text fill="#000000" font-family="sans-serif" font-size="12" lengthAdjust="spacing" textLength="242.9531" x="123.5571" y="1546.4473">Show Buttons (Reject, Done, View More)</text><rect fill="#F1F1F1" height="33.9688" rx="12.5" ry="12.5" style="stroke:#181818;stroke-width:0.5;" width="205.6016" x="142.2329" y="1627.6797"/><text fill="#000000" font-family="sans-serif" font-size="12" lengthAdjust="spacing" textLength="185.6016" x="152.2329" y="1648.8184">Delete Request from Database</text><polygon fill="#F1F1F1" points="210.0168,1579.2773,280.0505,1579.2773,292.0505,1591.2773,280.0505,1603.2773,210.0168,1603.2773,198.0168,1591.2773,210.0168,1579.2773" style="stroke:#181818;stroke-width:0.5;"/><text fill="#000000" font-family="sans-serif" font-size="11" lengthAdjust="spacing" textLength="19.2178" x="249.0337" y="1613.4878">Yes</text><text fill="#000000" font-family="sans-serif" font-size="11" lengthAdjust="spacing" textLength="70.0337" x="210.0168" y="1595.0854">Clicks Reject</text><polygon fill="#F1F1F1" points="245.0337,1681.6484,257.0337,1693.6484,245.0337,1705.6484,233.0337,1693.6484,245.0337,1681.6484" style="stroke:#181818;stroke-width:0.5;"/><rect fill="#F1F1F1" height="33.9688" rx="12.5" ry="12.5" style="stroke:#181818;stroke-width:0.5;" width="205.6016" x="142.2329" y="1777.6328"/><text fill="#000000" font-family="sans-serif" font-size="12" lengthAdjust="spacing" textLength="185.6016" x="152.2329" y="1798.7715">Delete Request from Database</text><polygon fill="#F1F1F1" points="212.8447,1729.2305,277.2227,1729.2305,289.2227,1741.2305,277.2227,1753.2305,212.8447,1753.2305,200.8447,1741.2305,212.8447,1729.2305" style="stroke:#181818;stroke-width:0.5;"/><text fill="#000000" font-family="sans-serif" font-size="11" lengthAdjust="spacing" textLength="19.2178" x="249.0337" y="1763.4409">Yes</text><text fill="#000000" font-family="sans-serif" font-size="11" lengthAdjust="spacing" textLength="64.3779" x="212.8447" y="1745.0386">Clicks Done</text><polygon fill="#F1F1F1" points="245.0337,1831.6016,257.0337,1843.6016,245.0337,1855.6016,233.0337,1843.6016,245.0337,1831.6016" style="stroke:#181818;stroke-width:0.5;"/><rect fill="#F1F1F1" height="33.9688" rx="12.5" ry="12.5" style="stroke:#181818;stroke-width:0.5;" width="221.2988" x="134.3843" y="1924.0039"/><text fill="#000000" font-family="sans-serif" font-size="12" lengthAdjust="spacing" textLength="201.2988" x="144.3843" y="1945.1426">Show Additional User Information</text><polygon fill="#F1F1F1" points="198.6382,1875.6016,291.4292,1875.6016,303.4292,1887.6016,291.4292,1899.6016,198.6382,1899.6016,186.6382,1887.6016,198.6382,1875.6016" style="stroke:#181818;stroke-width:0.5;"/><text fill="#000000" font-family="sans-serif" font-size="11" lengthAdjust="spacing" textLength="19.2178" x="249.0337" y="1909.812">Yes</text><text fill="#000000" font-family="sans-serif" font-size="11" lengthAdjust="spacing" textLength="92.791" x="198.6382" y="1891.4097">Clicks View More</text><polygon fill="#F1F1F1" points="245.0337,1977.9727,257.0337,1989.9727,245.0337,2001.9727,233.0337,1989.9727,245.0337,1977.9727" style="stroke:#181818;stroke-width:0.5;"/><polygon fill="#F1F1F1" points="204.063,1422.9375,286.0044,1422.9375,298.0044,1434.9375,286.0044,1446.9375,204.063,1446.9375,192.063,1434.9375,204.063,1422.9375" style="stroke:#181818;stroke-width:0.5;"/><text fill="#000000" font-family="sans-serif" font-size="11" lengthAdjust="spacing" textLength="19.2178" x="249.0337" y="1457.1479">Yes</text><text fill="#000000" font-family="sans-serif" font-size="11" lengthAdjust="spacing" textLength="81.9414" x="204.063" y="1438.7456">User is Admin?</text><polygon fill="#F1F1F1" points="245.0337,2021.9727,257.0337,2033.9727,245.0337,2045.9727,233.0337,2033.9727,245.0337,2021.9727" style="stroke:#181818;stroke-width:0.5;"/><polygon fill="#F1F1F1" points="198.6436,1374.5352,291.4238,1374.5352,303.4238,1386.5352,291.4238,1398.5352,198.6436,1398.5352,186.6436,1386.5352,198.6436,1374.5352" style="stroke:#181818;stroke-width:0.5;"/><text fill="#000000" font-family="sans-serif" font-size="11" lengthAdjust="spacing" textLength="19.2178" x="249.0337" y="1408.7456">Yes</text><text fill="#000000" font-family="sans-serif" font-size="11" lengthAdjust="spacing" textLength="92.7803" x="198.6436" y="1390.3433">Visits Dashboard</text><polygon fill="#F1F1F1" points="245.0337,2065.9727,257.0337,2077.9727,245.0337,2089.9727,233.0337,2077.9727,245.0337,2065.9727" style="stroke:#181818;stroke-width:0.5;"/><rect fill="#F1F1F1" height="33.9688" rx="12.5" ry="12.5" style="stroke:#181818;stroke-width:0.5;" width="141.3828" x="174.3423" y="2158.375"/><text fill="#000000" font-family="sans-serif" font-size="12" lengthAdjust="spacing" textLength="121.3828" x="184.3423" y="2179.5137">Validate Credentials</text><rect fill="#F1F1F1" height="33.9688" rx="12.5" ry="12.5" style="stroke:#181818;stroke-width:0.5;" width="208.7656" x="140.6509" y="2260.7461"/><text fill="#000000" font-family="sans-serif" font-size="12" lengthAdjust="spacing" textLength="188.7656" x="150.6509" y="2281.8848">Send Cookies and Store Locally</text><polygon fill="#F1F1F1" points="228.4343,2212.3438,261.6331,2212.3438,273.6331,2224.3438,261.6331,2236.3438,228.4343,2236.3438,216.4343,2224.3438,228.4343,2212.3438" style="stroke:#181818;stroke-width:0.5;"/><text fill="#000000" font-family="sans-serif" font-size="11" lengthAdjust="spacing" textLength="19.2178" x="249.0337" y="2246.5542">Yes</text><text fill="#000000" font-family="sans-serif" font-size="11" lengthAdjust="spacing" textLength="33.1987" x="228.4343" y="2228.1519">Valid?</text><polygon fill="#F1F1F1" points="245.0337,2314.7148,257.0337,2326.7148,245.0337,2338.7148,233.0337,2326.7148,245.0337,2314.7148" style="stroke:#181818;stroke-width:0.5;"/><polygon fill="#F1F1F1" points="230.0994,2109.9727,259.968,2109.9727,271.968,2121.9727,259.968,2133.9727,230.0994,2133.9727,218.0994,2121.9727,230.0994,2109.9727" style="stroke:#181818;stroke-width:0.5;"/><text fill="#000000" font-family="sans-serif" font-size="11" lengthAdjust="spacing" textLength="19.2178" x="249.0337" y="2144.1831">Yes</text><text fill="#000000" font-family="sans-serif" font-size="11" lengthAdjust="spacing" textLength="29.8687" x="230.0994" y="2125.7808">Login</text><polygon fill="#F1F1F1" points="245.0337,2358.7148,257.0337,2370.7148,245.0337,2382.7148,233.0337,2370.7148,245.0337,2358.7148" style="stroke:#181818;stroke-width:0.5;"/><rect fill="#F1F1F1" height="33.9688" rx="12.5" ry="12.5" style="stroke:#181818;stroke-width:0.5;" width="110.4277" x="189.8198" y="2451.1172"/><text fill="#000000" font-family="sans-serif" font-size="12" lengthAdjust="spacing" textLength="90.4277" x="199.8198" y="2472.2559">Validate Inputs</text><rect fill="#F1F1F1" height="33.9688" rx="12.5" ry="12.5" style="stroke:#181818;stroke-width:0.5;" width="141.7168" x="174.1753" y="2505.0859"/><text fill="#000000" font-family="sans-serif" font-size="12" lengthAdjust="spacing" textLength="121.7168" x="184.1753" y="2526.2246">Send Data to Server</text><polygon fill="#F1F1F1" points="174.2078,2574.0547,315.8596,2574.0547,327.8596,2586.0547,315.8596,2598.0547,174.2078,2598.0547,162.2078,2586.0547,174.2078,2574.0547" style="stroke:#181818;stroke-width:0.5;"/><text fill="#000000" font-family="sans-serif" font-size="11" lengthAdjust="spacing" textLength="141.6519" x="174.2078" y="2589.8628">Email Exists in Database?</text><text fill="#000000" font-family="sans-serif" font-size="11" lengthAdjust="spacing" textLength="19.2178" x="142.99" y="2583.4604">Yes</text><text fill="#000000" font-family="sans-serif" font-size="11" lengthAdjust="spacing" textLength="14.9585" x="327.8596" y="2583.4604">No</text><rect fill="#F1F1F1" height="33.9688" rx="12.5" ry="12.5" style="stroke:#181818;stroke-width:0.5;" width="245.7207" x="11" y="2608.0547"/><text fill="#000000" font-family="sans-serif" font-size="12" lengthAdjust="spacing" textLength="225.7207" x="21" y="2629.1934">Show "Email Already Exists" Message</text><rect fill="#F1F1F1" height="33.9688" rx="12.5" ry="12.5" style="stroke:#181818;stroke-width:0.5;" width="158.9727" x="276.7207" y="2608.0547"/><text fill="#000000" font-family="sans-serif" font-size="12" lengthAdjust="spacing" textLength="138.9727" x="286.7207" y="2629.1934">Store User in Database</text><polygon fill="#F1F1F1" points="245.0337,2648.0234,257.0337,2660.0234,245.0337,2672.0234,233.0337,2660.0234,245.0337,2648.0234" style="stroke:#181818;stroke-width:0.5;"/><polygon fill="#F1F1F1" points="223.7722,2402.7148,266.2952,2402.7148,278.2952,2414.7148,266.2952,2426.7148,223.7722,2426.7148,211.7722,2414.7148,223.7722,2402.7148" style="stroke:#181818;stroke-width:0.5;"/><text fill="#000000" font-family="sans-serif" font-size="11" lengthAdjust="spacing" textLength="19.2178" x="249.0337" y="2436.9253">Yes</text><text fill="#000000" font-family="sans-serif" font-size="11" lengthAdjust="spacing" textLength="42.5229" x="223.7722" y="2418.5229">Sign Up</text><polygon fill="#F1F1F1" points="245.0337,2692.0234,257.0337,2704.0234,245.0337,2716.0234,233.0337,2704.0234,245.0337,2692.0234" style="stroke:#181818;stroke-width:0.5;"/><rect fill="#F1F1F1" height="33.9688" rx="12.5" ry="12.5" style="stroke:#181818;stroke-width:0.5;" width="245.1348" x="122.4663" y="2736.0234"/><text fill="#000000" font-family="sans-serif" font-size="12" lengthAdjust="spacing" textLength="225.1348" x="132.4663" y="2757.1621">Middleware Extracts User Agent Data</text><rect fill="#F1F1F1" height="33.9688" rx="12.5" ry="12.5" style="stroke:#181818;stroke-width:0.5;" width="173.9141" x="158.0767" y="2789.9922"/><text fill="#000000" font-family="sans-serif" font-size="12" lengthAdjust="spacing" textLength="153.9141" x="168.0767" y="2811.1309">Store for Marketing Team</text><ellipse cx="245.0337" cy="2854.9609" fill="#FFFFFF" fill-opacity="0.00000" rx="11" ry="11" style="stroke:#222222;stroke-width:1;"/><ellipse cx="245.0337" cy="2854.9609" fill="#222222" rx="6" ry="6" style="stroke:#222222;stroke-width:1;"/><line style="stroke:#181818;stroke-width:1;" x1="245.0337" x2="245.0337" y1="30" y2="50"/><polygon fill="#181818" points="241.0337,40,245.0337,50,249.0337,40,245.0337,44" style="stroke:#181818;stroke-width:1;"/><line style="stroke:#181818;stroke-width:1;" x1="193.5535" x2="152.5518" y1="164.3711" y2="164.3711"/><line style="stroke:#181818;stroke-width:1;" x1="152.5518" x2="152.5518" y1="164.3711" y2="186.3711"/><polygon fill="#181818" points="148.5518,176.3711,152.5518,186.3711,156.5518,176.3711,152.5518,180.3711" style="stroke:#181818;stroke-width:1;"/><line style="stroke:#181818;stroke-width:1;" x1="296.5139" x2="337.5156" y1="164.3711" y2="164.3711"/><line style="stroke:#181818;stroke-width:1;" x1="337.5156" x2="337.5156" y1="164.3711" y2="186.3711"/><polygon fill="#181818" points="333.5156,176.3711,337.5156,186.3711,341.5156,176.3711,337.5156,180.3711" style="stroke:#181818;stroke-width:1;"/><line style="stroke:#181818;stroke-width:1;" x1="152.5518" x2="152.5518" y1="220.3398" y2="238.3398"/><line style="stroke:#181818;stroke-width:1;" x1="152.5518" x2="233.0337" y1="238.3398" y2="238.3398"/><polygon fill="#181818" points="223.0337,234.3398,233.0337,238.3398,223.0337,242.3398,227.0337,238.3398" style="stroke:#181818;stroke-width:1;"/><line style="stroke:#181818;stroke-width:1;" x1="337.5156" x2="337.5156" y1="220.3398" y2="238.3398"/><line style="stroke:#181818;stroke-width:1;" x1="337.5156" x2="257.0337" y1="238.3398" y2="238.3398"/><polygon fill="#181818" points="267.0337,234.3398,257.0337,238.3398,267.0337,242.3398,263.0337,238.3398" style="stroke:#181818;stroke-width:1;"/><line style="stroke:#181818;stroke-width:1;" x1="245.0337" x2="245.0337" y1="127.9688" y2="152.3711"/><polygon fill="#181818" points="241.0337,142.3711,245.0337,152.3711,249.0337,142.3711,245.0337,146.3711" style="stroke:#181818;stroke-width:1;"/><line style="stroke:#181818;stroke-width:1;" x1="311.6738" x2="435.4932" y1="115.9688" y2="115.9688"/><polygon fill="#181818" points="431.4932,191.3555,435.4932,201.3555,439.4932,191.3555,435.4932,195.3555" style="stroke:#181818;stroke-width:1;"/><line style="stroke:#181818;stroke-width:1;" x1="435.4932" x2="435.4932" y1="115.9688" y2="282.3398"/><line style="stroke:#181818;stroke-width:1;" x1="435.4932" x2="257.0337" y1="282.3398" y2="282.3398"/><polygon fill="#181818" points="267.0337,278.3398,257.0337,282.3398,267.0337,286.3398,263.0337,282.3398" style="stroke:#181818;stroke-width:1;"/><line style="stroke:#181818;stroke-width:1;" x1="245.0337" x2="245.0337" y1="250.3398" y2="270.3398"/><polygon fill="#181818" points="241.0337,260.3398,245.0337,270.3398,249.0337,260.3398,245.0337,264.3398" style="stroke:#181818;stroke-width:1;"/><line style="stroke:#181818;stroke-width:1;" x1="245.0337" x2="245.0337" y1="83.9688" y2="103.9688"/><polygon fill="#181818" points="241.0337,93.9688,245.0337,103.9688,249.0337,93.9688,245.0337,97.9688" style="stroke:#181818;stroke-width:1;"/><line style="stroke:#181818;stroke-width:1;" x1="245.0337" x2="245.0337" y1="338.3398" y2="362.7422"/><polygon fill="#181818" points="241.0337,352.7422,245.0337,362.7422,249.0337,352.7422,245.0337,356.7422" style="stroke:#181818;stroke-width:1;"/><line style="stroke:#181818;stroke-width:1;" x1="310.3687" x2="338.8706" y1="326.3398" y2="326.3398"/><polygon fill="#181818" points="334.8706,369.7266,338.8706,379.7266,342.8706,369.7266,338.8706,373.7266" style="stroke:#181818;stroke-width:1;"/><line style="stroke:#181818;stroke-width:1;" x1="338.8706" x2="338.8706" y1="326.3398" y2="428.7109"/><line style="stroke:#181818;stroke-width:1;" x1="338.8706" x2="257.0337" y1="428.7109" y2="428.7109"/><polygon fill="#181818" points="267.0337,424.7109,257.0337,428.7109,267.0337,432.7109,263.0337,428.7109" style="stroke:#181818;stroke-width:1;"/><line style="stroke:#181818;stroke-width:1;" x1="245.0337" x2="245.0337" y1="396.7109" y2="416.7109"/><polygon fill="#181818" points="241.0337,406.7109,245.0337,416.7109,249.0337,406.7109,245.0337,410.7109" style="stroke:#181818;stroke-width:1;"/><line style="stroke:#181818;stroke-width:1;" x1="245.0337" x2="245.0337" y1="294.3398" y2="314.3398"/><polygon fill="#181818" points="241.0337,304.3398,245.0337,314.3398,249.0337,304.3398,245.0337,308.3398" style="stroke:#181818;stroke-width:1;"/><line style="stroke:#181818;stroke-width:1;" x1="193.5535" x2="152.5518" y1="569.5156" y2="569.5156"/><line style="stroke:#181818;stroke-width:1;" x1="152.5518" x2="152.5518" y1="569.5156" y2="591.5156"/><polygon fill="#181818" points="148.5518,581.5156,152.5518,591.5156,156.5518,581.5156,152.5518,585.5156" style="stroke:#181818;stroke-width:1;"/><line style="stroke:#181818;stroke-width:1;" x1="296.5139" x2="337.5156" y1="569.5156" y2="569.5156"/><line style="stroke:#181818;stroke-width:1;" x1="337.5156" x2="337.5156" y1="569.5156" y2="591.5156"/><polygon fill="#181818" points="333.5156,581.5156,337.5156,591.5156,341.5156,581.5156,337.5156,585.5156" style="stroke:#181818;stroke-width:1;"/><line style="stroke:#181818;stroke-width:1;" x1="152.5518" x2="152.5518" y1="625.4844" y2="643.4844"/><line style="stroke:#181818;stroke-width:1;" x1="152.5518" x2="233.0337" y1="643.4844" y2="643.4844"/><polygon fill="#181818" points="223.0337,639.4844,233.0337,643.4844,223.0337,647.4844,227.0337,643.4844" style="stroke:#181818;stroke-width:1;"/><line style="stroke:#181818;stroke-width:1;" x1="337.5156" x2="337.5156" y1="625.4844" y2="643.4844"/><line style="stroke:#181818;stroke-width:1;" x1="337.5156" x2="257.0337" y1="643.4844" y2="643.4844"/><polygon fill="#181818" points="267.0337,639.4844,257.0337,643.4844,267.0337,647.4844,263.0337,643.4844" style="stroke:#181818;stroke-width:1;"/><line style="stroke:#181818;stroke-width:1;" x1="245.0337" x2="245.0337" y1="533.1133" y2="557.5156"/><polygon fill="#181818" points="241.0337,547.5156,245.0337,557.5156,249.0337,547.5156,245.0337,551.5156" style="stroke:#181818;stroke-width:1;"/><line style="stroke:#181818;stroke-width:1;" x1="311.6738" x2="435.4932" y1="521.1133" y2="521.1133"/><polygon fill="#181818" points="431.4932,596.5,435.4932,606.5,439.4932,596.5,435.4932,600.5" style="stroke:#181818;stroke-width:1;"/><line style="stroke:#181818;stroke-width:1;" x1="435.4932" x2="435.4932" y1="521.1133" y2="687.4844"/><line style="stroke:#181818;stroke-width:1;" x1="435.4932" x2="257.0337" y1="687.4844" y2="687.4844"/><polygon fill="#181818" points="267.0337,683.4844,257.0337,687.4844,267.0337,691.4844,263.0337,687.4844" style="stroke:#181818;stroke-width:1;"/><line style="stroke:#181818;stroke-width:1;" x1="245.0337" x2="245.0337" y1="655.4844" y2="675.4844"/><polygon fill="#181818" points="241.0337,665.4844,245.0337,675.4844,249.0337,665.4844,245.0337,669.4844" style="stroke:#181818;stroke-width:1;"/><line style="stroke:#181818;stroke-width:1;" x1="245.0337" x2="245.0337" y1="484.7109" y2="509.1133"/><polygon fill="#181818" points="241.0337,499.1133,245.0337,509.1133,249.0337,499.1133,245.0337,503.1133" style="stroke:#181818;stroke-width:1;"/><line style="stroke:#181818;stroke-width:1;" x1="305.0593" x2="457.4932" y1="472.7109" y2="472.7109"/><polygon fill="#181818" points="453.4932,596.5,457.4932,606.5,461.4932,596.5,457.4932,600.5" style="stroke:#181818;stroke-width:1;"/><line style="stroke:#181818;stroke-width:1;" x1="457.4932" x2="457.4932" y1="472.7109" y2="731.4844"/><line style="stroke:#181818;stroke-width:1;" x1="457.4932" x2="257.0337" y1="731.4844" y2="731.4844"/><polygon fill="#181818" points="267.0337,727.4844,257.0337,731.4844,267.0337,735.4844,263.0337,731.4844" style="stroke:#181818;stroke-width:1;"/><line style="stroke:#181818;stroke-width:1;" x1="245.0337" x2="245.0337" y1="699.4844" y2="719.4844"/><polygon fill="#181818" points="241.0337,709.4844,245.0337,719.4844,249.0337,709.4844,245.0337,713.4844" style="stroke:#181818;stroke-width:1;"/><line style="stroke:#181818;stroke-width:1;" x1="245.0337" x2="245.0337" y1="440.7109" y2="460.7109"/><polygon fill="#181818" points="241.0337,450.7109,245.0337,460.7109,249.0337,450.7109,245.0337,454.7109" style="stroke:#181818;stroke-width:1;"/><line style="stroke:#181818;stroke-width:1;" x1="146.9995" x2="146.9995" y1="923.8555" y2="948.2578"/><polygon fill="#181818" points="142.9995,938.2578,146.9995,948.2578,150.9995,938.2578,146.9995,942.2578" style="stroke:#181818;stroke-width:1;"/><line style="stroke:#181818;stroke-width:1;" x1="203.021" x2="233.0903" y1="911.8555" y2="911.8555"/><polygon fill="#181818" points="229.0903,955.2422,233.0903,965.2422,237.0903,955.2422,233.0903,959.2422" style="stroke:#181818;stroke-width:1;"/><line style="stroke:#181818;stroke-width:1;" x1="233.0903" x2="233.0903" y1="911.8555" y2="1014.2266"/><line style="stroke:#181818;stroke-width:1;" x1="233.0903" x2="158.9995" y1="1014.2266" y2="1014.2266"/><polygon fill="#181818" points="168.9995,1010.2266,158.9995,1014.2266,168.9995,1018.2266,164.9995,1014.2266" style="stroke:#181818;stroke-width:1;"/><line style="stroke:#181818;stroke-width:1;" x1="146.9995" x2="146.9995" y1="982.2266" y2="1002.2266"/><polygon fill="#181818" points="142.9995,992.2266,146.9995,1002.2266,150.9995,992.2266,146.9995,996.2266" style="stroke:#181818;stroke-width:1;"/><line style="stroke:#181818;stroke-width:1;" x1="146.9995" x2="146.9995" y1="879.8555" y2="899.8555"/><polygon fill="#181818" points="142.9995,889.8555,146.9995,899.8555,150.9995,889.8555,146.9995,893.8555" style="stroke:#181818;stroke-width:1;"/><line style="stroke:#181818;stroke-width:1;" x1="193.5535" x2="146.9995" y1="823.8867" y2="823.8867"/><line style="stroke:#181818;stroke-width:1;" x1="146.9995" x2="146.9995" y1="823.8867" y2="845.8867"/><polygon fill="#181818" points="142.9995,835.8867,146.9995,845.8867,150.9995,835.8867,146.9995,839.8867" style="stroke:#181818;stroke-width:1;"/><line style="stroke:#181818;stroke-width:1;" x1="296.5139" x2="343.0679" y1="823.8867" y2="823.8867"/><line style="stroke:#181818;stroke-width:1;" x1="343.0679" x2="343.0679" y1="823.8867" y2="845.8867"/><polygon fill="#181818" points="339.0679,835.8867,343.0679,845.8867,347.0679,835.8867,343.0679,839.8867" style="stroke:#181818;stroke-width:1;"/><line style="stroke:#181818;stroke-width:1;" x1="146.9995" x2="146.9995" y1="1026.2266" y2="1044.2266"/><line style="stroke:#181818;stroke-width:1;" x1="146.9995" x2="233.0337" y1="1044.2266" y2="1044.2266"/><polygon fill="#181818" points="223.0337,1040.2266,233.0337,1044.2266,223.0337,1048.2266,227.0337,1044.2266" style="stroke:#181818;stroke-width:1;"/><line style="stroke:#181818;stroke-width:1;" x1="343.0679" x2="343.0679" y1="879.8555" y2="1044.2266"/><line style="stroke:#181818;stroke-width:1;" x1="343.0679" x2="257.0337" y1="1044.2266" y2="1044.2266"/><polygon fill="#181818" points="267.0337,1040.2266,257.0337,1044.2266,267.0337,1048.2266,263.0337,1044.2266" style="stroke:#181818;stroke-width:1;"/><line style="stroke:#181818;stroke-width:1;" x1="245.0337" x2="245.0337" y1="787.4844" y2="811.8867"/><polygon fill="#181818" points="241.0337,801.8867,245.0337,811.8867,249.0337,801.8867,245.0337,805.8867" style="stroke:#181818;stroke-width:1;"/><line style="stroke:#181818;stroke-width:1;" x1="311.9907" x2="441.0454" y1="775.4844" y2="775.4844"/><polygon fill="#181818" points="437.0454,918.7578,441.0454,928.7578,445.0454,918.7578,441.0454,922.7578" style="stroke:#181818;stroke-width:1;"/><line style="stroke:#181818;stroke-width:1;" x1="441.0454" x2="441.0454" y1="775.4844" y2="1088.2266"/><line style="stroke:#181818;stroke-width:1;" x1="441.0454" x2="257.0337" y1="1088.2266" y2="1088.2266"/><polygon fill="#181818" points="267.0337,1084.2266,257.0337,1088.2266,267.0337,1092.2266,263.0337,1088.2266" style="stroke:#181818;stroke-width:1;"/><line style="stroke:#181818;stroke-width:1;" x1="245.0337" x2="245.0337" y1="1056.2266" y2="1076.2266"/><polygon fill="#181818" points="241.0337,1066.2266,245.0337,1076.2266,249.0337,1066.2266,245.0337,1070.2266" style="stroke:#181818;stroke-width:1;"/><line style="stroke:#181818;stroke-width:1;" x1="245.0337" x2="245.0337" y1="743.4844" y2="763.4844"/><polygon fill="#181818" points="241.0337,753.4844,245.0337,763.4844,249.0337,753.4844,245.0337,757.4844" style="stroke:#181818;stroke-width:1;"/><line style="stroke:#181818;stroke-width:1;" x1="245.0337" x2="245.0337" y1="1202.5977" y2="1222.5977"/><polygon fill="#181818" points="241.0337,1212.5977,245.0337,1222.5977,249.0337,1212.5977,245.0337,1216.5977" style="stroke:#181818;stroke-width:1;"/><line style="stroke:#181818;stroke-width:1;" x1="245.0337" x2="245.0337" y1="1256.5664" y2="1276.5664"/><polygon fill="#181818" points="241.0337,1266.5664,245.0337,1276.5664,249.0337,1266.5664,245.0337,1270.5664" style="stroke:#181818;stroke-width:1;"/><line style="stroke:#181818;stroke-width:1;" x1="245.0337" x2="245.0337" y1="1144.2266" y2="1168.6289"/><polygon fill="#181818" points="241.0337,1158.6289,245.0337,1168.6289,249.0337,1158.6289,245.0337,1162.6289" style="stroke:#181818;stroke-width:1;"/><line style="stroke:#181818;stroke-width:1;" x1="318.8362" x2="346.8159" y1="1132.2266" y2="1132.2266"/><polygon fill="#181818" points="342.8159,1229.582,346.8159,1239.582,350.8159,1229.582,346.8159,1233.582" style="stroke:#181818;stroke-width:1;"/><line style="stroke:#181818;stroke-width:1;" x1="346.8159" x2="346.8159" y1="1132.2266" y2="1342.5352"/><line style="stroke:#181818;stroke-width:1;" x1="346.8159" x2="257.0337" y1="1342.5352" y2="1342.5352"/><polygon fill="#181818" points="267.0337,1338.5352,257.0337,1342.5352,267.0337,1346.5352,263.0337,1342.5352" style="stroke:#181818;stroke-width:1;"/><line style="stroke:#181818;stroke-width:1;" x1="245.0337" x2="245.0337" y1="1310.5352" y2="1330.5352"/><polygon fill="#181818" points="241.0337,1320.5352,245.0337,1330.5352,249.0337,1320.5352,245.0337,1324.5352" style="stroke:#181818;stroke-width:1;"/><line style="stroke:#181818;stroke-width:1;" x1="245.0337" x2="245.0337" y1="1100.2266" y2="1120.2266"/><polygon fill="#181818" points="241.0337,1110.2266,245.0337,1120.2266,249.0337,1110.2266,245.0337,1114.2266" style="stroke:#181818;stroke-width:1;"/><line style="stroke:#181818;stroke-width:1;" x1="245.0337" x2="245.0337" y1="1505.3086" y2="1525.3086"/><polygon fill="#181818" points="241.0337,1515.3086,245.0337,1525.3086,249.0337,1515.3086,245.0337,1519.3086" style="stroke:#181818;stroke-width:1;"/><line style="stroke:#181818;stroke-width:1;" x1="245.0337" x2="245.0337" y1="1603.2773" y2="1627.6797"/><polygon fill="#181818" points="241.0337,1617.6797,245.0337,1627.6797,249.0337,1617.6797,245.0337,1621.6797" style="stroke:#181818;stroke-width:1;"/><line style="stroke:#181818;stroke-width:1;" x1="292.0505" x2="357.8345" y1="1591.2773" y2="1591.2773"/><polygon fill="#181818" points="353.8345,1634.6641,357.8345,1644.6641,361.8345,1634.6641,357.8345,1638.6641" style="stroke:#181818;stroke-width:1;"/><line style="stroke:#181818;stroke-width:1;" x1="357.8345" x2="357.8345" y1="1591.2773" y2="1693.6484"/><line style="stroke:#181818;stroke-width:1;" x1="357.8345" x2="257.0337" y1="1693.6484" y2="1693.6484"/><polygon fill="#181818" points="267.0337,1689.6484,257.0337,1693.6484,267.0337,1697.6484,263.0337,1693.6484" style="stroke:#181818;stroke-width:1;"/><line style="stroke:#181818;stroke-width:1;" x1="245.0337" x2="245.0337" y1="1661.6484" y2="1681.6484"/><polygon fill="#181818" points="241.0337,1671.6484,245.0337,1681.6484,249.0337,1671.6484,245.0337,1675.6484" style="stroke:#181818;stroke-width:1;"/><line style="stroke:#181818;stroke-width:1;" x1="245.0337" x2="245.0337" y1="1559.2773" y2="1579.2773"/><polygon fill="#181818" points="241.0337,1569.2773,245.0337,1579.2773,249.0337,1569.2773,245.0337,1573.2773" style="stroke:#181818;stroke-width:1;"/><line style="stroke:#181818;stroke-width:1;" x1="245.0337" x2="245.0337" y1="1753.2305" y2="1777.6328"/><polygon fill="#181818" points="241.0337,1767.6328,245.0337,1777.6328,249.0337,1767.6328,245.0337,1771.6328" style="stroke:#181818;stroke-width:1;"/><line style="stroke:#181818;stroke-width:1;" x1="289.2227" x2="357.8345" y1="1741.2305" y2="1741.2305"/><polygon fill="#181818" points="353.8345,1784.6172,357.8345,1794.6172,361.8345,1784.6172,357.8345,1788.6172" style="stroke:#181818;stroke-width:1;"/><line style="stroke:#181818;stroke-width:1;" x1="357.8345" x2="357.8345" y1="1741.2305" y2="1843.6016"/><line style="stroke:#181818;stroke-width:1;" x1="357.8345" x2="257.0337" y1="1843.6016" y2="1843.6016"/><polygon fill="#181818" points="267.0337,1839.6016,257.0337,1843.6016,267.0337,1847.6016,263.0337,1843.6016" style="stroke:#181818;stroke-width:1;"/><line style="stroke:#181818;stroke-width:1;" x1="245.0337" x2="245.0337" y1="1811.6016" y2="1831.6016"/><polygon fill="#181818" points="241.0337,1821.6016,245.0337,1831.6016,249.0337,1821.6016,245.0337,1825.6016" style="stroke:#181818;stroke-width:1;"/><line style="stroke:#181818;stroke-width:1;" x1="245.0337" x2="245.0337" y1="1705.6484" y2="1729.2305"/><polygon fill="#181818" points="241.0337,1719.2305,245.0337,1729.2305,249.0337,1719.2305,245.0337,1723.2305" style="stroke:#181818;stroke-width:1;"/><line style="stroke:#181818;stroke-width:1;" x1="245.0337" x2="245.0337" y1="1899.6016" y2="1924.0039"/><polygon fill="#181818" points="241.0337,1914.0039,245.0337,1924.0039,249.0337,1914.0039,245.0337,1918.0039" style="stroke:#181818;stroke-width:1;"/><line style="stroke:#181818;stroke-width:1;" x1="303.4292" x2="365.6831" y1="1887.6016" y2="1887.6016"/><polygon fill="#181818" points="361.6831,1930.9883,365.6831,1940.9883,369.6831,1930.9883,365.6831,1934.9883" style="stroke:#181818;stroke-width:1;"/><line style="stroke:#181818;stroke-width:1;" x1="365.6831" x2="365.6831" y1="1887.6016" y2="1989.9727"/><line style="stroke:#181818;stroke-width:1;" x1="365.6831" x2="257.0337" y1="1989.9727" y2="1989.9727"/><polygon fill="#181818" points="267.0337,1985.9727,257.0337,1989.9727,267.0337,1993.9727,263.0337,1989.9727" style="stroke:#181818;stroke-width:1;"/><line style="stroke:#181818;stroke-width:1;" x1="245.0337" x2="245.0337" y1="1957.9727" y2="1977.9727"/><polygon fill="#181818" points="241.0337,1967.9727,245.0337,1977.9727,249.0337,1967.9727,245.0337,1971.9727" style="stroke:#181818;stroke-width:1;"/><line style="stroke:#181818;stroke-width:1;" x1="245.0337" x2="245.0337" y1="1855.6016" y2="1875.6016"/><polygon fill="#181818" points="241.0337,1865.6016,245.0337,1875.6016,249.0337,1865.6016,245.0337,1869.6016" style="stroke:#181818;stroke-width:1;"/><line style="stroke:#181818;stroke-width:1;" x1="245.0337" x2="245.0337" y1="1446.9375" y2="1471.3398"/><polygon fill="#181818" points="241.0337,1461.3398,245.0337,1471.3398,249.0337,1461.3398,245.0337,1465.3398" style="stroke:#181818;stroke-width:1;"/><line style="stroke:#181818;stroke-width:1;" x1="298.0044" x2="387.6831" y1="1434.9375" y2="1434.9375"/><polygon fill="#181818" points="383.6831,1715.6484,387.6831,1725.6484,391.6831,1715.6484,387.6831,1719.6484" style="stroke:#181818;stroke-width:1;"/><line style="stroke:#181818;stroke-width:1;" x1="387.6831" x2="387.6831" y1="1434.9375" y2="2033.9727"/><line style="stroke:#181818;stroke-width:1;" x1="387.6831" x2="257.0337" y1="2033.9727" y2="2033.9727"/><polygon fill="#181818" points="267.0337,2029.9727,257.0337,2033.9727,267.0337,2037.9727,263.0337,2033.9727" style="stroke:#181818;stroke-width:1;"/><line style="stroke:#181818;stroke-width:1;" x1="245.0337" x2="245.0337" y1="2001.9727" y2="2021.9727"/><polygon fill="#181818" points="241.0337,2011.9727,245.0337,2021.9727,249.0337,2011.9727,245.0337,2015.9727" style="stroke:#181818;stroke-width:1;"/><line style="stroke:#181818;stroke-width:1;" x1="245.0337" x2="245.0337" y1="1398.5352" y2="1422.9375"/><polygon fill="#181818" points="241.0337,1412.9375,245.0337,1422.9375,249.0337,1412.9375,245.0337,1416.9375" style="stroke:#181818;stroke-width:1;"/><line style="stroke:#181818;stroke-width:1;" x1="303.4238" x2="409.6831" y1="1386.5352" y2="1386.5352"/><polygon fill="#181818" points="405.6831,1715.6484,409.6831,1725.6484,413.6831,1715.6484,409.6831,1719.6484" style="stroke:#181818;stroke-width:1;"/><line style="stroke:#181818;stroke-width:1;" x1="409.6831" x2="409.6831" y1="1386.5352" y2="2077.9727"/><line style="stroke:#181818;stroke-width:1;" x1="409.6831" x2="257.0337" y1="2077.9727" y2="2077.9727"/><polygon fill="#181818" points="267.0337,2073.9727,257.0337,2077.9727,267.0337,2081.9727,263.0337,2077.9727" style="stroke:#181818;stroke-width:1;"/><line style="stroke:#181818;stroke-width:1;" x1="245.0337" x2="245.0337" y1="2045.9727" y2="2065.9727"/><polygon fill="#181818" points="241.0337,2055.9727,245.0337,2065.9727,249.0337,2055.9727,245.0337,2059.9727" style="stroke:#181818;stroke-width:1;"/><line style="stroke:#181818;stroke-width:1;" x1="245.0337" x2="245.0337" y1="1354.5352" y2="1374.5352"/><polygon fill="#181818" points="241.0337,1364.5352,245.0337,1374.5352,249.0337,1364.5352,245.0337,1368.5352" style="stroke:#181818;stroke-width:1;"/><line style="stroke:#181818;stroke-width:1;" x1="245.0337" x2="245.0337" y1="2236.3438" y2="2260.7461"/><polygon fill="#181818" points="241.0337,2250.7461,245.0337,2260.7461,249.0337,2250.7461,245.0337,2254.7461" style="stroke:#181818;stroke-width:1;"/><line style="stroke:#181818;stroke-width:1;" x1="273.6331" x2="359.4165" y1="2224.3438" y2="2224.3438"/><polygon fill="#181818" points="355.4165,2267.7305,359.4165,2277.7305,363.4165,2267.7305,359.4165,2271.7305" style="stroke:#181818;stroke-width:1;"/><line style="stroke:#181818;stroke-width:1;" x1="359.4165" x2="359.4165" y1="2224.3438" y2="2326.7148"/><line style="stroke:#181818;stroke-width:1;" x1="359.4165" x2="257.0337" y1="2326.7148" y2="2326.7148"/><polygon fill="#181818" points="267.0337,2322.7148,257.0337,2326.7148,267.0337,2330.7148,263.0337,2326.7148" style="stroke:#181818;stroke-width:1;"/><line style="stroke:#181818;stroke-width:1;" x1="245.0337" x2="245.0337" y1="2294.7148" y2="2314.7148"/><polygon fill="#181818" points="241.0337,2304.7148,245.0337,2314.7148,249.0337,2304.7148,245.0337,2308.7148" style="stroke:#181818;stroke-width:1;"/><line style="stroke:#181818;stroke-width:1;" x1="245.0337" x2="245.0337" y1="2192.3438" y2="2212.3438"/><polygon fill="#181818" points="241.0337,2202.3438,245.0337,2212.3438,249.0337,2202.3438,245.0337,2206.3438" style="stroke:#181818;stroke-width:1;"/><line style="stroke:#181818;stroke-width:1;" x1="245.0337" x2="245.0337" y1="2133.9727" y2="2158.375"/><polygon fill="#181818" points="241.0337,2148.375,245.0337,2158.375,249.0337,2148.375,245.0337,2152.375" style="stroke:#181818;stroke-width:1;"/><line style="stroke:#181818;stroke-width:1;" x1="271.968" x2="381.4165" y1="2121.9727" y2="2121.9727"/><polygon fill="#181818" points="377.4165,2233.2461,381.4165,2243.2461,385.4165,2233.2461,381.4165,2237.2461" style="stroke:#181818;stroke-width:1;"/><line style="stroke:#181818;stroke-width:1;" x1="381.4165" x2="381.4165" y1="2121.9727" y2="2370.7148"/><line style="stroke:#181818;stroke-width:1;" x1="381.4165" x2="257.0337" y1="2370.7148" y2="2370.7148"/><polygon fill="#181818" points="267.0337,2366.7148,257.0337,2370.7148,267.0337,2374.7148,263.0337,2370.7148" style="stroke:#181818;stroke-width:1;"/><line style="stroke:#181818;stroke-width:1;" x1="245.0337" x2="245.0337" y1="2338.7148" y2="2358.7148"/><polygon fill="#181818" points="241.0337,2348.7148,245.0337,2358.7148,249.0337,2348.7148,245.0337,2352.7148" style="stroke:#181818;stroke-width:1;"/><line style="stroke:#181818;stroke-width:1;" x1="245.0337" x2="245.0337" y1="2089.9727" y2="2109.9727"/><polygon fill="#181818" points="241.0337,2099.9727,245.0337,2109.9727,249.0337,2099.9727,245.0337,2103.9727" style="stroke:#181818;stroke-width:1;"/><line style="stroke:#181818;stroke-width:1;" x1="245.0337" x2="245.0337" y1="2485.0859" y2="2505.0859"/><polygon fill="#181818" points="241.0337,2495.0859,245.0337,2505.0859,249.0337,2495.0859,245.0337,2499.0859" style="stroke:#181818;stroke-width:1;"/><line style="stroke:#181818;stroke-width:1;" x1="162.2078" x2="133.8604" y1="2586.0547" y2="2586.0547"/><line style="stroke:#181818;stroke-width:1;" x1="133.8604" x2="133.8604" y1="2586.0547" y2="2608.0547"/><polygon fill="#181818" points="129.8604,2598.0547,133.8604,2608.0547,137.8604,2598.0547,133.8604,2602.0547" style="stroke:#181818;stroke-width:1;"/><line style="stroke:#181818;stroke-width:1;" x1="327.8596" x2="356.207" y1="2586.0547" y2="2586.0547"/><line style="stroke:#181818;stroke-width:1;" x1="356.207" x2="356.207" y1="2586.0547" y2="2608.0547"/><polygon fill="#181818" points="352.207,2598.0547,356.207,2608.0547,360.207,2598.0547,356.207,2602.0547" style="stroke:#181818;stroke-width:1;"/><line style="stroke:#181818;stroke-width:1;" x1="133.8604" x2="133.8604" y1="2642.0234" y2="2660.0234"/><line style="stroke:#181818;stroke-width:1;" x1="133.8604" x2="233.0337" y1="2660.0234" y2="2660.0234"/><polygon fill="#181818" points="223.0337,2656.0234,233.0337,2660.0234,223.0337,2664.0234,227.0337,2660.0234" style="stroke:#181818;stroke-width:1;"/><line style="stroke:#181818;stroke-width:1;" x1="356.207" x2="356.207" y1="2642.0234" y2="2660.0234"/><line style="stroke:#181818;stroke-width:1;" x1="356.207" x2="257.0337" y1="2660.0234" y2="2660.0234"/><polygon fill="#181818" points="267.0337,2656.0234,257.0337,2660.0234,267.0337,2664.0234,263.0337,2660.0234" style="stroke:#181818;stroke-width:1;"/><line style="stroke:#181818;stroke-width:1;" x1="245.0337" x2="245.0337" y1="2539.0547" y2="2574.0547"/><polygon fill="#181818" points="241.0337,2564.0547,245.0337,2574.0547,249.0337,2564.0547,245.0337,2568.0547" style="stroke:#181818;stroke-width:1;"/><line style="stroke:#181818;stroke-width:1;" x1="245.0337" x2="245.0337" y1="2426.7148" y2="2451.1172"/><polygon fill="#181818" points="241.0337,2441.1172,245.0337,2451.1172,249.0337,2441.1172,245.0337,2445.1172" style="stroke:#181818;stroke-width:1;"/><line style="stroke:#181818;stroke-width:1;" x1="278.2952" x2="455.6934" y1="2414.7148" y2="2414.7148"/><polygon fill="#181818" points="451.6934,2544.0703,455.6934,2554.0703,459.6934,2544.0703,455.6934,2548.0703" style="stroke:#181818;stroke-width:1;"/><line style="stroke:#181818;stroke-width:1;" x1="455.6934" x2="455.6934" y1="2414.7148" y2="2704.0234"/><line style="stroke:#181818;stroke-width:1;" x1="455.6934" x2="257.0337" y1="2704.0234" y2="2704.0234"/><polygon fill="#181818" points="267.0337,2700.0234,257.0337,2704.0234,267.0337,2708.0234,263.0337,2704.0234" style="stroke:#181818;stroke-width:1;"/><line style="stroke:#181818;stroke-width:1;" x1="245.0337" x2="245.0337" y1="2672.0234" y2="2692.0234"/><polygon fill="#181818" points="241.0337,2682.0234,245.0337,2692.0234,249.0337,2682.0234,245.0337,2686.0234" style="stroke:#181818;stroke-width:1;"/><line style="stroke:#181818;stroke-width:1;" x1="245.0337" x2="245.0337" y1="2382.7148" y2="2402.7148"/><polygon fill="#181818" points="241.0337,2392.7148,245.0337,2402.7148,249.0337,2392.7148,245.0337,2396.7148" style="stroke:#181818;stroke-width:1;"/><line style="stroke:#181818;stroke-width:1;" x1="245.0337" x2="245.0337" y1="2716.0234" y2="2736.0234"/><polygon fill="#181818" points="241.0337,2726.0234,245.0337,2736.0234,249.0337,2726.0234,245.0337,2730.0234" style="stroke:#181818;stroke-width:1;"/><line style="stroke:#181818;stroke-width:1;" x1="245.0337" x2="245.0337" y1="2769.9922" y2="2789.9922"/><polygon fill="#181818" points="241.0337,2779.9922,245.0337,2789.9922,249.0337,2779.9922,245.0337,2783.9922" style="stroke:#181818;stroke-width:1;"/><line style="stroke:#181818;stroke-width:1;" x1="245.0337" x2="245.0337" y1="2823.9609" y2="2843.9609"/><polygon fill="#181818" points="241.0337,2833.9609,245.0337,2843.9609,249.0337,2833.9609,245.0337,2837.9609" style="stroke:#181818;stroke-width:1;"/><!--SRC=[hLHDZzem4BtdLumuWRI_00uL1RIjLAeLMP1w7F0GfZWsjOTb-VTrua0WSakrwYMAekStypuSB-WaouPBJmxUsBDu-69BWXSiQ9Jn5leJpPkzXzup2UGLd5Hl0B8Z0_qVv0SPG0spTi_aOVRENZvr00331Ibsj14G2pcvDzu4S9m2GDeJzB_R1FQRBTYqGADucyNdxNRFrXQQO8u7tnbzHtO36zsohABoyTeUfPwL4lZOXtzouf4NNJV-wiV5aOGpZQOx_W_ajaBD2eLWh3LyDOUZ-D5LQliDQbnIxOkp6o859vRTTPtEyX_Elr4viKOm75WcTSPwDujEKR2YQfMrgePve8OvUHz8gkaLU8sUKcsPej-jBJgLSBKUoA5HgcIJS7NA_g3n33Mk6WAlkDPDfCDyPq_m-IXYZOV-Wdu6BvvWQWqzmOhf17FhQD36q5Gp0bCHJ4bJ4BgWNqVo0bjdonjfjqdS4LOJ_oDTktg2izOyLeg5hK4DJMHRwqgiFZreUrsJRkpNX2UE51bXr7NCTOZfliO6N2u5XlTSmiQXXXlK-fpiOCw5WUNXZzEx_QhpRgu-kSj2in9Pnsle8LJ-OcXgnyghNZmmrevGdPk3lKjv4t_LA2GsqzpbTQTeE6UbD9qmW6VluiAryl7Kk0WUDlUdOGlnXB-fsvEmAU2Li1nbcHTx-0q0]--></g></svg>