<!-- Generated by IcoMoon.io -->
<svg version="1.1" xmlns="http://www.w3.org/2000/svg" width="640" height="640" viewBox="0 0 640 640">
<g id="icomoon-ignore">
</g>
<path fill="#000" d="M320 0c176.731 0 320 143.269 320 320s-143.269 320-320 320v0c-176.731 0-320-143.269-320-320s143.269-320 320-320v0zM64 320c0 141.385 114.615 256 256 256s256-114.615 256-256v0c0-141.385-114.615-256-256-256s-256 114.615-256 256v0zM401.28 342.4l-113.28 113.6-45.12-45.12 89.92-90.88-89.6-90.56 44.8-45.12 135.68 135.68-22.4 22.4z"></path>
</svg>
